HIERARCHY
ROOT SpineBase
{
  OFFSET 0.000000 0.000000 0.000000
  CHANNELS 6 Xposition Yposition Zposition Zrotation Xrotation Yrotation
  JOINT SpineMid
  {
    OFFSET -0.000000 31.665945 0.000000
    CHANNELS 3 Zrotation Xrotation Yrotation
    JOINT SpineShoulder
    {
      OFFSET 0.022822 23.526820 -0.761186
      CHANNELS 3 Zrotation Xrotation Yrotation
      JOINT Neck
      {
        OFFSET 0.026304 7.786764 -0.573110
        CHANNELS 3 Zrotation Xrotation Yrotation
        JOINT Head
        {
          OFFSET 5.903748 12.656563 4.771037
          CHANNELS 3 Zrotation Xrotation Yrotation
          End Site
          {
            OFFSET 0 0 0
          }
        }
      }
      JOINT ShoulderLeft
      {
        OFFSET -12.069029 -1.902677 -11.104032
        CHANNELS 3 Zrotation Xrotation Yrotation
        JOINT ElbowLeft
        {
          OFFSET -7.894810 -21.975764 -7.048405
          CHANNELS 3 Zrotation Xrotation Yrotation
          JOINT WristLeft
          {
            OFFSET 19.340159 -13.809074 -5.114124
            CHANNELS 3 Zrotation Xrotation Yrotation
            JOINT HandLeft
            {
              OFFSET 5.698197 -0.616063 2.698351
              CHANNELS 3 Zrotation Xrotation Yrotation
              JOINT HandTipLeft
              {
                OFFSET 6.758493 1.767451 -2.341652
                CHANNELS 3 Zrotation Xrotation Yrotation
                End Site
                {
                  OFFSET 0 0 0
                }
              }
              JOINT ThumbLeft
              {
                OFFSET 1.691332 -3.804068 1.136702
                CHANNELS 3 Zrotation Xrotation Yrotation
                End Site
                {
                  OFFSET 0 0 0
                }
              }
            }
          }
        }
      }
      JOINT ShoulderRight
      {
        OFFSET 14.177269 -6.757651 11.221252
        CHANNELS 3 Zrotation Xrotation Yrotation
        JOINT ElbowRight
        {
          OFFSET 2.190157 -28.344494 6.766645
          CHANNELS 3 Zrotation Xrotation Yrotation
          JOINT WristRight
          {
            OFFSET 1.046132 -23.907350 -1.472154
            CHANNELS 3 Zrotation Xrotation Yrotation
            JOINT HandRight
            {
              OFFSET 0.861028 -4.579936 0.405647
              CHANNELS 3 Zrotation Xrotation Yrotation
              JOINT HandTipRight
              {
                OFFSET 1.574485 -4.710934 0.647288
                CHANNELS 3 Zrotation Xrotation Yrotation
                End Site
                {
                  OFFSET 0 0 0
                }
              }
              JOINT ThumbRight
              {
                OFFSET -2.946489 0.894620 -1.487394
                CHANNELS 3 Zrotation Xrotation Yrotation
                End Site
                {
                  OFFSET 0 0 0
                }
              }
            }
          }
        }
      }
    }
  }
  JOINT HipLeft
  {
    OFFSET -5.095373 1.807783 -7.764730
    CHANNELS 3 Zrotation Xrotation Yrotation
    JOINT KneeLeft
    {
      OFFSET -9.180877 -37.435164 -5.848012
      CHANNELS 3 Zrotation Xrotation Yrotation
      JOINT AnkleLeft
      {
        OFFSET -11.173274 -35.602932 -3.864911
        CHANNELS 3 Zrotation Xrotation Yrotation
        JOINT FootLeft
        {
          OFFSET -2.940758 -6.416813 -8.573213
          CHANNELS 3 Zrotation Xrotation Yrotation
          End Site
          {
            OFFSET 0 0 0
          }
        }
      }
    }
  }
  JOINT HipRight
  {
    OFFSET 5.730941 -0.098908 0.655107
    CHANNELS 3 Zrotation Xrotation Yrotation
    JOINT KneeRight
    {
      OFFSET -1.835526 -37.350629 2.471690
      CHANNELS 3 Zrotation Xrotation Yrotation
      JOINT AnkleRight
      {
        OFFSET -6.317375 -34.684366 6.272734
        CHANNELS 3 Zrotation Xrotation Yrotation
        JOINT FootRight
        {
          OFFSET 0.693098 -8.410604 -5.027819
          CHANNELS 3 Zrotation Xrotation Yrotation
          End Site
          {
            OFFSET 0 0 0
          }
        }
      }
    }
  }
}
MOTION
Frames: 6
Frame Time: 0.033333
-32.818141 81.724345 345.981490 -2.813326 0.467290 -44.024413 -0.261283 -0.267536 43.929894 -0.125760 -0.194977 -0.147362 -5.648510 -11.665261 8.037743 0.000000 0.000000 0.000000 -1.061991 12.164292 -2.264382 17.891825 -8.744227 4.606780 6.837475 -2.977616 31.364325 -28.181982 27.535056 -66.648213 0.000000 0.000000 0.000000 0.000000 0.000000 0.000000 8.240559 19.858041 2.243666 11.570591 63.093647 -8.788357 -62.185061 30.643167 -50.117129 -0.537266 12.038203 60.718234 0.000000 0.000000 0.000000 0.000000 0.000000 0.000000 3.754240 0.493130 44.380254 1.940535 -1.282198 0.319112 18.303803 7.255652 -32.180739 0.000000 0.000000 0.000000 2.251790 2.838584 44.011551 0.542450 -4.110117 0.859815 13.818396 12.899141 -10.401582 0.000000 0.000000 0.000000
-32.813024 81.725701 345.978994 -2.821473 0.478345 -44.160724 -0.250352 -0.250951 44.067091 -0.095027 -0.189169 -0.144351 -5.448005 -11.885307 8.056868 0.000000 0.000000 0.000000 -1.004354 12.646884 -2.463045 17.907242 -9.463381 4.613296 5.791623 -3.215002 28.863615 -28.423334 26.756461 -64.968313 0.000000 0.000000 0.000000 0.000000 0.000000 0.000000 9.225161 18.163351 2.257590 6.842027 67.000211 -7.623715 -53.152951 20.244062 -42.980999 -7.720333 13.268080 47.506973 0.000000 0.000000 0.000000 0.000000 0.000000 0.000000 3.790577 0.482680 44.522586 1.934792 -1.216507 0.299504 25.026731 7.802866 -42.646129 0.000000 0.000000 0.000000 2.220949 2.875568 44.146881 0.592026 -4.143854 0.870575 12.411318 11.576434 -9.486776 0.000000 0.000000 0.000000
-32.815226 81.721769 345.974355 -2.830613 0.487875 -44.255313 -0.225715 -0.233067 44.162721 -0.063070 -0.184894 -0.140825 -5.228278 -12.117760 8.080941 0.000000 0.000000 0.000000 -0.925404 13.040641 -2.645358 17.892166 -10.043529 4.620152 5.187802 -3.555462 26.370135 -29.353776 26.276473 -62.966526 0.000000 0.000000 0.000000 0.000000 0.000000 0.000000 10.500017 15.671212 2.314798 3.035125 72.851495 -6.992136 -44.614823 0.050573 -38.243217 -24.307209 24.066449 42.485855 0.000000 0.000000 0.000000 0.000000 0.000000 0.000000 3.838439 0.474046 44.622868 1.930586 -1.128719 0.273221 26.232253 7.864258 -44.521702 0.000000 0.000000 0.000000 2.215497 2.898880 44.241271 0.529701 -4.118782 0.849217 10.699231 9.098501 -8.317926 0.000000 0.000000 0.000000
-32.811202 81.729345 345.972034 -2.822384 0.487633 -44.389699 -0.195662 -0.211374 44.298661 -0.036062 -0.184466 -0.136731 -5.082670 -12.354242 8.127328 0.000000 0.000000 0.000000 -0.844386 13.391189 -2.820421 17.844459 -10.576487 4.596530 5.118777 -3.742359 24.849239 -30.331741 26.527559 -62.469489 0.000000 0.000000 0.000000 0.000000 0.000000 0.000000 10.962976 14.978507 2.354075 11.836760 74.916932 -14.213848 -52.418899 -10.384834 -49.197486 -33.312124 29.265955 52.004276 0.000000 0.000000 0.000000 0.000000 0.000000 0.000000 3.859370 0.450616 44.766470 1.938699 -1.029720 0.241074 26.617271 8.762835 -45.211612 0.000000 0.000000 0.000000 2.149041 2.930478 44.374030 0.463088 -4.149484 0.829883 7.517320 4.303195 -6.311745 0.000000 0.000000 0.000000
-32.809212 81.742478 345.974804 -2.805656 0.474429 -44.486996 -0.152402 -0.189614 44.397609 -0.004284 -0.196785 -0.131731 -5.052433 -12.457212 8.156384 0.000000 0.000000 0.000000 -0.767791 13.655142 -2.967146 17.765293 -10.931110 4.581894 5.041778 -4.075289 23.017375 -31.158445 26.223182 -60.936299 0.000000 0.000000 0.000000 0.000000 0.000000 0.000000 10.890413 15.443062 2.348369 17.407287 74.528480 -18.265983 -58.117883 -7.463024 -55.643542 -32.212752 27.925718 55.903548 0.000000 0.000000 0.000000 0.000000 0.000000 0.000000 3.861181 0.435351 44.870416 1.923822 -0.921748 0.208332 25.876941 8.905795 -44.032097 0.000000 0.000000 0.000000 2.065505 2.964067 44.469370 0.418575 -4.198829 0.818290 9.501502 5.828745 -7.490797 0.000000 0.000000 0.000000
-32.810781 81.757112 345.982134 -2.783261 0.461295 -44.562419 -0.107206 -0.164336 44.474995 0.021223 -0.206280 -0.126752 -5.032306 -12.531176 8.172500 0.000000 0.000000 0.000000 -0.710500 13.821759 -3.079290 17.703918 -11.158726 4.554452 4.629279 -4.397245 21.078815 -31.545544 25.359200 -58.753330 0.000000 0.000000 0.000000 0.000000 0.000000 0.000000 11.438586 15.110538 2.399687 22.928772 74.972945 -23.274153 -61.860232 -7.239332 -59.917324 -33.408489 27.638824 57.456363 0.000000 0.000000 0.000000 0.000000 0.000000 0.000000 3.850518 0.423150 44.949838 1.926520 -0.893284 0.199566 23.227910 9.036985 -39.986934 0.000000 0.000000 0.000000 1.993785 2.986762 44.543488 0.333532 -4.307095 0.811349 8.893975 4.165956 -7.099200 0.000000 0.000000 0.000000
